<svg viewBox="0 0 100.000000 100.000000" version="1.1" xmlns="http://www.w3.org/2000/svg"
     id="el_q9TJh6D9M">
  <style>@-webkit-keyframes el_R9UW4-P7ah_cFTtL09b-_Animation{0%{-webkit-transform: translate(50.609373807907104px,
    50.12313608825207px) rotate(0deg) translate(-50.609373807907104px, -50.12313608825207px);transform:
    translate(50.609373807907104px, 50.12313608825207px) rotate(0deg) translate(-50.609373807907104px,
    -50.12313608825207px);}100%{-webkit-transform: translate(50.609373807907104px, 50.12313608825207px) rotate(360deg)
    translate(-50.609373807907104px, -50.12313608825207px);transform: translate(50.609373807907104px,
    50.12313608825207px) rotate(360deg) translate(-50.609373807907104px, -50.12313608825207px);}}@keyframes
    el_R9UW4-P7ah_cFTtL09b-_Animation{0%{-webkit-transform: translate(50.609373807907104px, 50.12313608825207px)
    rotate(0deg) translate(-50.609373807907104px, -50.12313608825207px);transform: translate(50.609373807907104px,
    50.12313608825207px) rotate(0deg) translate(-50.609373807907104px, -50.12313608825207px);}100%{-webkit-transform:
    translate(50.609373807907104px, 50.12313608825207px) rotate(360deg) translate(-50.609373807907104px,
    -50.12313608825207px);transform: translate(50.609373807907104px, 50.12313608825207px) rotate(360deg)
    translate(-50.609373807907104px, -50.12313608825207px);}}#el_q9TJh6D9M *{-webkit-animation-duration:
    3s;animation-duration: 3s;-webkit-animation-iteration-count: infinite;animation-iteration-count:
    infinite;-webkit-animation-timing-function: cubic-bezier(0, 0, 1, 1);animation-timing-function: cubic-bezier(0, 0,
    1, 1);}#el_S-2d9yQa5L{stroke: none;stroke-width: 1;fill: none;}#el_R9UW4-P7ah{-webkit-transform: translate(12px,
    6px);transform: translate(12px, 6px);fill: #BCBCBC;}#el_xmvLW_YrWI{-webkit-transform: translate(1px,
    39px);transform: translate(28px, 39px);}#el_nq-cSg8kZ_{fill: #7942A8;}#el_8sF3o8gajn{fill:
    #B72779;}#el_VCHGuqeFrW{fill: #EE4037;}#el_kL3ZG-zAr2{fill:
    #F59121;}#el_R9UW4-P7ah_cFTtL09b-{-webkit-animation-name: el_R9UW4-P7ah_cFTtL09b-_Animation;animation-name:
    el_R9UW4-P7ah_cFTtL09b-_Animation;-webkit-transform: translate(50.609373807907104px, 50.12313608825207px)
    rotate(0deg) translate(-50.609373807907104px, -50.12313608825207px);transform: translate(50.609373807907104px,
    50.12313608825207px) rotate(0deg) translate(-50.609373807907104px, -50.12313608825207px);}
    #globe {width: 10px;}
  </style>
  <!-- Generator: Sketch 52.5 (67469) - http://www.bohemiancoding.com/sketch -->
  <title>both in one</title>
  <desc>Created with Sketch.</desc>
  <g id="el_S-2d9yQa5L" fill-rule="evenodd">
    <g id="el_R9UW4-P7ah_cFTtL09b-" data-animator-group="true" data-animator-type="1">
      <g id="el_R9UW4-P7ah" fill-rule="nonzero">
        <path
          d="M2.04181362,19.9352748 C3.07651646,18.0314216 14.0719587,0.344900949 38.4633538,0.165552455 C64.0550042,-0.0137960379 75.3539593,20.2525837 75.7333503,21.1217341 C77.4164669,25.0053188 76.699073,29.9925865 73.1327972,31.7722754 C69.0422719,33.814089 64.7655001,32.5862416 62.4822559,29.3579688 C57.7709089,22.7358705 57.2535575,14.3892676 45.1337381,9.44338797 C18.8660819,-1.29682757 0.965722656,21.8598221 2.02111956,19.9283768 L2.04181362,19.9352748 Z M75.1884068,68.3317759 C74.1675,70.2218331 63.1720578,87.9221498 38.7806627,88.0808043 C13.1890123,88.2532547 1.87626116,68.0075691 1.50376814,67.1108266 C-0.206940569,63.247936 0.517351423,58.2675663 4.06983119,56.4878774 C8.16725446,54.4460638 12.4509242,55.6808092 14.7272705,58.902184 C19.4455155,65.5380783 19.9559689,73.8708852 32.0826862,78.8236628 C58.3641385,89.5431843 76.2713958,66.4072287 75.1953048,68.338674 L75.1884068,68.3317759 Z"
          id="el_j8B3lfKba6"/>
      </g>
    </g>
    <g transform="translate(25.000000,68.000000) scale(0.010033,-0.010000)"
fill="#bcbcbc" stroke="none" id="globe">
<path d="M1965 3019 c-60 -5 -245 -15 -410 -23 -603 -30 -730 -38 -745 -45
-13 -7 -15 -49 -18 -264 -2 -257 -2 -257 -25 -261 -12 -3 -190 -13 -395 -22
l-372 -18 2 -784 3 -785 170 -38 c94 -21 270 -59 393 -85 l222 -48 0 -91 c0
-75 3 -95 18 -107 9 -9 121 -41 247 -73 127 -31 286 -72 355 -90 69 -18 154
-39 190 -48 36 -8 264 -65 508 -126 l444 -112 116 3 c98 3 139 9 252 41 300
82 360 98 465 126 61 16 153 41 205 55 223 62 572 157 745 204 42 11 45 21 45
136 l0 112 188 43 c207 47 388 89 415 97 16 5 17 51 17 784 l0 779 -32 5 c-18
3 -157 12 -308 18 l-275 13 -3 261 c-2 193 -6 264 -15 271 -12 10 -175 21
-692 48 -154 8 -336 20 -404 25 -146 12 -1146 11 -1306 -1z m665 -1504 l0
-1475 -22 5 c-13 4 -412 104 -888 224 l-865 217 -3 1202 -2 1201 32 5 c18 3
132 10 253 16 121 6 255 13 298 17 l77 6 0 -200 c0 -166 3 -203 15 -213 23
-19 414 -4 438 18 15 13 17 37 17 218 l0 202 148 7 c81 4 194 11 252 15 58 4
138 8 178 9 l72 1 0 -1475z m380 1460 c118 -8 227 -15 243 -15 l27 0 0 -214
c0 -142 4 -217 11 -221 18 -12 413 -22 427 -12 9 7 12 62 12 215 l0 205 73 -6
c39 -4 174 -12 298 -18 l226 -12 2 -1206 1 -1206 -162 -44 c-90 -24 -226 -60
-303 -81 -77 -21 -234 -64 -350 -95 -115 -31 -248 -67 -295 -80 -47 -13 -179
-49 -295 -80 -115 -31 -218 -58 -227 -61 -17 -5 -18 70 -18 1470 l0 1476 58 0
c31 0 154 -7 272 -15z m-2508 -747 l3 -123 143 -3 142 -3 0 -470 0 -471 -22
-18 c-21 -17 -23 -17 -37 1 -21 25 -233 49 -264 30 -15 -10 -22 -9 -35 2 -25
21 -217 43 -237 27 -20 -17 -22 -322 -2 -338 22 -18 208 -46 227 -34 14 8 22
7 34 -7 22 -24 251 -70 268 -53 8 8 19 5 39 -11 32 -23 40 -62 12 -53 -10 2
-83 18 -163 35 -80 17 -243 52 -362 78 l-218 47 0 733 c0 403 3 734 8 734 23
4 282 16 364 17 l97 2 3 -122z m4441 106 l27 -6 0 -733 0 -732 -27 -6 c-16 -4
-134 -31 -263 -61 -326 -75 -300 -71 -300 -49 0 16 17 23 113 42 61 13 120 30
130 39 14 13 17 33 17 122 0 144 -2 146 -131 125 -52 -8 -102 -15 -111 -15
-17 0 -18 31 -18 519 l0 518 70 -5 c99 -7 100 -5 100 140 l0 120 183 -7 c100
-3 194 -8 210 -11z m-4569 -1194 c20 0 21 -3 17 -127 -1 -71 -4 -130 -6 -131
-2 -2 -37 2 -79 9 l-76 12 0 125 0 125 61 -7 c34 -3 71 -6 83 -6z m249 -27
l67 -6 0 -143 c0 -79 -3 -144 -6 -144 -3 0 -46 7 -95 16 l-89 17 0 133 0 134
28 0 c15 0 57 -3 95 -7z m3957 -168 c0 -47 -2 -85 -4 -85 -5 0 -139 -27 -173
-35 -23 -5 -23 -4 -23 85 0 101 -9 92 100 109 108 17 100 23 100 -74z"/>
<path d="M1101 1038 c-37 -13 -42 -50 -39 -285 3 -188 5 -225 19 -238 9 -9 63
-27 120 -39 172 -39 176 -39 197 -18 17 17 20 43 26 267 9 301 19 279 -140
300 -162 22 -160 22 -183 13z m261 -308 c-2 -123 -4 -225 -5 -226 -1 -1 -55
10 -119 24 l-118 26 0 216 0 216 123 -16 122 -16 -3 -224z"/>
<path d="M1457 982 c-15 -16 -17 -51 -17 -279 0 -235 2 -261 18 -275 18 -16
277 -78 324 -78 55 0 58 18 58 307 0 331 16 304 -196 327 -184 20 -168 20
-187 -2z m168 -57 c66 -8 128 -15 138 -15 16 0 17 -19 17 -251 l0 -251 -37 7
c-21 3 -86 18 -145 32 l-108 25 0 234 c0 129 3 234 8 234 4 0 61 -7 127 -15z"/>
<path d="M1867 932 c-15 -16 -17 -52 -17 -299 0 -254 2 -281 18 -295 9 -8 103
-36 209 -62 198 -49 222 -50 237 -10 3 8 6 150 6 313 0 288 -1 299 -21 317
-16 14 -55 22 -187 35 -215 23 -226 23 -245 1z m256 -63 l137 -12 0 -282 0
-283 -97 23 c-54 13 -132 32 -173 42 l-75 19 -3 258 -2 258 37 -6 c21 -3 100
-11 176 -17z"/>
<path d="M3650 824 c-69 -13 -201 -37 -295 -54 -125 -21 -173 -34 -182 -47
-10 -12 -13 -71 -13 -215 0 -194 0 -198 23 -212 20 -13 51 -7 332 60 171 42
317 82 325 90 21 20 27 336 7 374 -17 33 -43 34 -197 4z m150 -187 l0 -153
-257 -62 c-142 -34 -273 -65 -290 -68 l-33 -6 0 170 0 170 63 11 c34 6 141 25
237 42 96 16 190 34 210 39 75 17 70 27 70 -143z"/>
</g>
  </g>
</svg>
