<?xml version="1.0" standalone="no"?>
<!DOCTYPE svg PUBLIC "-//W3C//DTD SVG 20010904//EN"
 "http://www.w3.org/TR/2001/REC-SVG-20010904/DTD/svg10.dtd">
<svg version="1.0" xmlns="http://www.w3.org/2000/svg"
 width="1000.000000pt" height="303.000000pt" viewBox="0 0 1000.000000 303.000000"
 preserveAspectRatio="xMidYMid meet">
<metadata>
Created by potrace 1.16, written by Peter Selinger 2001-2019
</metadata>
<g transform="translate(0.000000,303.000000) scale(0.100000,-0.100000)"
fill="#36578e" stroke="none">
<path d="M4380 2877 c-47 -45 -139 -131 -205 -192 -65 -60 -158 -146 -205
-190 -47 -44 -135 -126 -195 -181 -61 -56 -171 -158 -245 -228 -74 -69 -184
-170 -244 -223 l-110 -98 247 -3 247 -2 0 -500 0 -500 -250 0 -250 0 0 -45 0
-45 510 0 c281 0 510 2 510 5 0 3 -16 23 -36 45 l-36 40 -184 0 -184 0 -2 543
-3 542 -172 5 -172 5 117 111 c64 60 133 123 152 140 19 16 80 72 135 125 55
52 190 178 300 279 110 101 227 210 260 241 33 32 73 67 88 79 l28 22 39 -33
c33 -29 128 -117 475 -439 28 -26 97 -91 155 -146 58 -54 174 -162 258 -239
l152 -140 -172 -5 -173 -5 -3 -542 -2 -543 -90 0 c-50 0 -90 -2 -90 -5 0 -2
19 -22 43 -44 l42 -40 338 -1 337 0 0 45 0 45 -250 0 -250 0 -2 367 c-2 203
-2 428 0 501 l3 132 247 0 247 0 -70 62 c-38 35 -119 110 -180 167 -60 57
-130 123 -155 146 -25 22 -101 92 -170 155 -69 63 -165 153 -215 200 -49 47
-144 135 -210 195 -66 61 -158 147 -206 193 -47 45 -92 82 -100 82 -8 0 -52
-38 -99 -83z"/>
<path d="M4603 2476 c-43 -54 -43 -145 -1 -201 23 -29 23 -35 26 -337 2 -170
2 -308 0 -308 -2 0 -25 9 -53 19 l-50 19 1 46 c0 30 7 56 21 75 48 64 49 174
2 217 -18 17 -19 15 -19 -43 0 -54 -3 -63 -25 -77 -23 -15 -28 -15 -55 -1 -28
15 -30 19 -30 76 0 69 -12 74 -44 19 -30 -51 -26 -113 12 -184 18 -32 32 -72
32 -87 0 -27 -3 -29 -39 -29 -22 0 -46 -3 -55 -6 -14 -5 -16 15 -16 185 l0
191 29 0 c20 0 30 6 34 20 3 14 14 20 32 20 18 0 29 -6 32 -20 4 -17 14 -20
54 -20 l49 0 0 95 0 95 -45 0 c-34 0 -47 -5 -55 -20 -6 -12 -21 -20 -36 -20
-17 0 -28 7 -31 20 -5 18 -14 20 -102 20 -104 0 -201 -19 -268 -51 -37 -18
-43 -25 -43 -51 0 -27 2 -29 23 -22 12 4 48 8 80 8 55 1 61 -1 93 -36 19 -21
41 -38 49 -38 13 0 15 -31 15 -213 l0 -214 -25 -23 c-14 -13 -27 -22 -28 -19
-2 2 -21 31 -42 64 -34 53 -39 70 -45 142 -7 89 -19 112 -73 140 -39 20 -44
11 -18 -33 19 -31 20 -41 11 -70 -10 -29 -16 -34 -43 -34 -27 0 -36 7 -55 40
-30 53 -46 42 -40 -26 5 -63 30 -95 93 -123 48 -22 58 -33 118 -133 l45 -76
-18 -59 c-10 -32 -21 -85 -25 -118 -3 -33 -10 -69 -15 -80 -32 -77 -33 -84
-16 -110 9 -14 27 -32 40 -40 13 -9 45 -62 75 -125 40 -84 57 -110 72 -110 26
0 24 10 -16 90 -43 85 -44 94 -8 85 15 -3 62 -10 106 -15 44 -5 82 -12 85 -15
3 -3 -25 -36 -62 -74 -63 -63 -67 -70 -56 -92 12 -22 15 -21 94 64 94 100 84
98 215 32 86 -43 82 -43 254 28 104 43 147 74 147 106 0 24 -60 94 -101 118
-16 10 -29 26 -29 37 0 11 -6 27 -13 35 -7 9 -19 45 -26 81 -7 36 -22 87 -33
113 l-21 48 84 85 c77 78 109 99 109 74 0 -5 8 -10 19 -10 26 0 44 -26 37 -53
-4 -17 1 -30 20 -47 l25 -24 42 42 c41 42 42 42 25 69 -9 16 -25 30 -35 32
-30 5 -43 22 -37 45 8 34 -99 173 -166 214 -41 25 -55 30 -66 21 -20 -16 -18
-24 9 -36 31 -14 53 -64 60 -134 l5 -56 -79 -78 c-57 -57 -80 -74 -84 -63 -3
8 -5 163 -3 344 l3 329 34 58 c29 50 33 65 29 107 -3 27 -14 61 -24 77 l-19
28 -3 -54 c-5 -79 -50 -113 -99 -72 -17 14 -23 31 -25 77 l-3 59 -22 -29z"/>
<path d="M7909 2042 c-85 -76 -35 -247 72 -247 34 0 46 6 75 38 30 33 34 43
34 92 0 93 -41 145 -112 145 -27 0 -46 -8 -69 -28z"/>
<path d="M737 2025 c-92 -25 -160 -66 -238 -144 -129 -129 -174 -251 -173
-466 1 -107 6 -144 26 -212 66 -219 229 -367 435 -394 133 -18 267 11 364 78
47 32 149 129 149 141 0 4 -19 30 -41 57 -23 28 -50 61 -60 74 l-19 23 -57
-52 c-84 -77 -160 -110 -250 -110 -142 0 -245 64 -308 193 -109 223 -28 499
174 591 34 15 67 20 126 20 101 0 171 -29 253 -108 l58 -56 35 38 c19 20 50
54 69 75 l34 37 -69 68 c-115 111 -239 163 -385 161 -41 0 -97 -7 -123 -14z"/>
<path d="M7578 1878 l-3 -163 -47 -3 -48 -3 0 -90 0 -89 50 0 50 0 0 -345 0
-345 90 0 90 0 0 345 0 345 55 0 55 0 0 89 0 90 -52 3 -53 3 -3 163 -2 162
-90 0 -90 0 -2 -162z"/>
<path d="M5785 1733 c-33 -9 -67 -36 -96 -77 l-29 -39 0 46 0 47 -80 0 -80 0
0 -435 0 -435 89 0 89 0 4 293 c3 273 5 295 25 339 28 60 62 84 102 70 l30
-11 26 84 c27 90 29 101 17 109 -14 8 -77 14 -97 9z"/>
<path d="M7022 1729 c-281 -47 -434 -394 -297 -674 40 -82 108 -156 176 -191
107 -54 273 -56 384 -3 45 21 156 119 154 137 0 4 -33 33 -74 64 l-73 57 -16
-23 c-26 -40 -111 -76 -180 -76 -76 0 -132 25 -174 76 -88 106 -81 274 16 374
51 52 95 70 173 70 51 0 143 -40 162 -71 7 -11 15 -19 19 -19 4 0 41 21 82 46
l76 47 -20 26 c-27 39 -103 107 -140 126 -36 18 -152 45 -190 44 -14 -1 -49
-5 -78 -10z"/>
<path d="M8462 1729 c-104 -20 -220 -119 -273 -234 -109 -232 -15 -537 198
-642 51 -24 69 -28 148 -28 76 0 99 4 147 27 110 51 200 164 234 292 8 28 14
90 14 137 0 230 -135 411 -335 448 -66 12 -72 12 -133 0z m145 -210 c46 -17
101 -78 120 -133 24 -72 21 -169 -6 -231 -41 -92 -100 -135 -186 -135 -164 0
-257 218 -169 397 46 94 147 138 241 102z"/>
<path d="M9395 1734 c-60 -15 -90 -29 -135 -65 l-50 -39 0 40 0 40 -95 0 -95
0 0 -435 0 -435 94 0 95 0 3 278 3 277 27 51 c30 58 64 84 118 91 47 7 95 -17
116 -58 23 -44 33 -181 34 -426 l0 -213 90 0 91 0 -3 348 c-3 341 -3 348 -27
400 -25 56 -75 106 -125 127 -37 16 -113 25 -141 19z"/>
<path d="M1681 1720 c-142 -30 -265 -155 -307 -315 -18 -67 -17 -207 1 -280
35 -134 146 -259 261 -295 79 -24 142 -25 214 -4 338 100 404 628 104 835 -79
54 -184 77 -273 59z m164 -223 c53 -30 102 -111 111 -184 20 -167 -71 -303
-203 -303 -65 0 -100 17 -146 70 -105 124 -67 366 68 426 48 21 124 17 170 -9z"/>
<path d="M2578 1716 c-26 -7 -72 -31 -102 -55 l-56 -42 0 41 0 40 -95 0 -95 0
0 -435 0 -435 95 0 95 0 0 245 c0 136 5 266 11 294 21 100 92 166 167 158 49
-5 78 -27 101 -77 12 -29 16 -88 19 -327 l4 -293 89 0 89 0 0 333 c0 377 -5
409 -67 478 -66 73 -161 101 -255 75z"/>
<path d="M3175 1721 c-81 -21 -154 -90 -175 -166 -16 -56 -9 -138 15 -188 26
-56 93 -118 185 -172 86 -50 120 -84 120 -120 0 -24 -34 -59 -67 -69 -29 -9
-108 26 -149 65 l-30 29 -57 -71 -56 -71 25 -33 c51 -67 150 -115 239 -115
155 0 265 109 265 263 0 38 -5 88 -12 111 -17 57 -93 129 -207 196 -105 62
-121 84 -90 124 35 44 90 34 160 -31 l26 -24 56 67 56 67 -20 29 c-58 81 -192
133 -284 109z"/>
<path d="M5920 1467 c0 -364 18 -459 104 -555 59 -65 114 -86 226 -87 84 0
101 3 152 28 67 33 121 93 149 167 28 73 39 203 39 463 l0 227 -95 0 -95 0 0
-282 c0 -257 -2 -287 -20 -325 -27 -60 -70 -85 -139 -80 -45 3 -59 9 -82 35
-15 17 -33 48 -38 69 -7 22 -11 150 -11 311 l0 272 -95 0 -95 0 0 -243z"/>
<path d="M7890 1275 l0 -435 90 0 90 0 0 435 0 435 -90 0 -90 0 0 -435z"/>
<path d="M4232 802 c-18 -12 -4 -42 19 -42 20 0 23 8 13 34 -7 18 -13 19 -32
8z"/>
<path d="M4575 791 c-22 -10 -55 -30 -73 -46 -65 -55 -124 -60 -204 -19 -29
15 -58 18 -57 7 1 -16 71 -66 111 -80 53 -18 88 -10 141 34 124 105 268 104
411 -4 58 -45 82 -47 74 -7 -4 24 -97 85 -171 112 -74 28 -175 29 -232 3z"/>
<path d="M6604 570 c-29 -12 -54 -49 -54 -81 0 -27 45 -97 77 -120 35 -25 53
-60 42 -81 -13 -24 -54 -23 -72 3 -13 18 -18 19 -36 7 -29 -18 -26 -32 10 -62
83 -70 197 21 148 117 -6 12 -36 48 -67 79 -47 49 -53 59 -42 72 16 20 29 20
52 -1 18 -16 20 -16 39 3 19 20 19 20 -3 41 -28 26 -66 35 -94 23z"/>
<path d="M2090 395 l0 -175 25 0 25 0 0 175 0 175 -25 0 -25 0 0 -175z"/>
<path d="M3170 520 c0 -38 -4 -50 -15 -50 -9 0 -15 -9 -15 -25 0 -16 6 -25 15
-25 12 0 15 -18 15 -100 l0 -100 30 0 30 0 0 100 c0 82 3 100 15 100 9 0 15 9
15 25 0 16 -6 25 -15 25 -11 0 -15 12 -15 50 0 49 -1 50 -30 50 -29 0 -30 -1
-30 -50z"/>
<path d="M4012 408 c-12 -90 -22 -169 -22 -175 0 -7 11 -13 24 -13 22 0 24 6
40 107 9 59 18 109 20 110 1 2 8 -16 15 -39 54 -184 52 -179 79 -176 22 3 28
13 57 113 35 122 37 121 56 -22 12 -93 12 -93 41 -93 24 0 28 3 23 23 -5 25
-45 304 -45 318 0 5 -13 9 -29 9 -27 0 -31 -4 -46 -57 -9 -32 -26 -89 -37
-128 l-21 -70 -13 40 c-7 22 -24 79 -39 128 -24 82 -27 87 -53 87 l-28 0 -22
-162z"/>
<path d="M6350 525 c0 -31 -5 -47 -15 -51 -8 -4 -15 -17 -15 -30 0 -15 6 -24
15 -24 12 0 15 -18 15 -100 l0 -100 25 0 25 0 0 100 c0 82 3 100 15 100 9 0
15 9 15 25 0 16 -6 25 -15 25 -11 0 -15 12 -15 50 0 47 -2 50 -25 50 -23 0
-25 -4 -25 -45z"/>
<path d="M7180 525 c0 -31 -5 -47 -15 -51 -8 -4 -15 -17 -15 -30 0 -15 6 -24
15 -24 12 0 15 -18 15 -100 l0 -100 25 0 25 0 0 100 c0 93 1 100 20 100 14 0
20 7 20 24 0 15 -7 26 -20 29 -16 4 -20 14 -20 51 0 42 -2 46 -25 46 -23 0
-25 -4 -25 -45z"/>
<path d="M2272 464 c-12 -8 -22 -10 -22 -5 0 6 -13 11 -30 11 l-30 0 0 -125 0
-125 30 0 30 0 0 85 c0 72 3 88 20 105 24 24 34 25 54 4 12 -12 16 -37 16
-105 l0 -89 31 0 31 0 -4 104 c-3 94 -5 107 -27 130 -28 30 -66 34 -99 10z"/>
<path d="M2724 470 c-79 -32 -96 -167 -28 -231 36 -34 123 -35 156 -1 20 19
21 24 8 32 -8 6 -24 8 -35 5 -61 -16 -71 -16 -98 5 -51 40 -37 50 68 50 l95 0
0 31 c0 81 -89 140 -166 109z m79 -51 c22 -12 37 -28 37 -41 0 -5 -29 -8 -65
-8 -71 0 -85 15 -43 44 27 19 42 20 71 5z"/>
<path d="M3008 464 c-16 -8 -28 -10 -28 -4 0 5 -11 10 -25 10 l-25 0 0 -125 0
-125 25 0 c24 0 25 2 25 75 0 105 25 149 69 125 22 -11 31 -51 31 -136 0 -62
1 -64 26 -64 l26 0 -4 111 c-3 102 -5 112 -27 130 -28 23 -56 24 -93 3z"/>
<path d="M3332 460 c-18 -11 -40 -36 -48 -55 -58 -140 94 -259 193 -151 29 31
33 43 33 91 0 48 -4 60 -33 91 -42 46 -96 55 -145 24z m111 -62 c33 -39 17
-111 -29 -128 -79 -30 -124 94 -52 144 26 19 56 13 81 -16z"/>
<path d="M3598 463 c-11 -10 -18 -13 -18 -5 0 7 -11 12 -25 12 l-25 0 0 -125
0 -125 30 0 30 0 0 86 c0 90 12 129 36 120 9 -3 14 1 14 11 0 31 17 -1 52
-102 l36 -101 -23 -57 -24 -57 27 0 c26 0 31 9 99 175 l71 175 -27 0 c-25 0
-30 -7 -56 -72 -15 -40 -31 -77 -35 -81 -4 -5 -20 28 -35 72 -16 45 -34 81
-40 81 -7 0 -25 3 -41 6 -20 4 -34 0 -46 -13z"/>
<path d="M4429 465 c-39 -21 -62 -78 -56 -138 4 -42 10 -56 41 -84 40 -37 78
-42 116 -16 17 12 25 13 28 5 2 -7 15 -12 28 -12 l24 0 0 125 0 125 -24 0
c-13 0 -26 -5 -28 -12 -3 -8 -11 -7 -28 5 -29 20 -66 21 -101 2z m109 -64 c47
-60 1 -152 -67 -134 -22 6 -51 50 -51 78 0 26 28 73 47 78 26 7 56 -3 71 -22z"/>
<path d="M4732 464 c-12 -8 -22 -10 -22 -5 0 6 -13 11 -30 11 l-30 0 0 -125 0
-125 30 0 30 0 0 85 c0 72 3 88 20 105 24 24 34 25 54 4 12 -12 16 -37 16
-105 l0 -89 31 0 31 0 -4 104 c-3 94 -5 107 -27 130 -28 30 -66 34 -99 10z"/>
<path d="M4953 470 c-35 -14 -63 -68 -63 -123 0 -59 21 -102 60 -122 36 -19
57 -19 93 -1 15 8 27 11 27 5 0 -5 14 -9 30 -9 l30 0 0 125 0 125 -30 0 c-16
0 -30 -4 -30 -9 0 -6 -12 -3 -27 5 -32 16 -58 17 -90 4z m81 -51 c32 -15 50
-66 37 -102 -31 -81 -131 -60 -131 28 0 44 20 70 67 84 1 1 13 -4 27 -10z"/>
<path d="M5225 471 c-41 -17 -59 -50 -63 -115 -4 -59 -2 -65 29 -100 30 -35
36 -37 78 -34 25 3 54 8 65 13 16 7 17 5 11 -16 -15 -50 -31 -53 -147 -33 -46
8 -48 -3 -8 -41 26 -25 39 -29 85 -29 100 0 125 47 125 237 l0 117 -24 0 c-13
0 -26 -5 -28 -11 -2 -6 -14 -5 -33 5 -33 17 -59 19 -90 7z m103 -65 c24 -24
26 -79 2 -109 -55 -70 -153 13 -109 94 20 37 75 45 107 15z"/>
<path d="M5520 463 c-17 -12 -25 -13 -28 -5 -2 7 -15 12 -28 12 l-24 0 0 -125
c0 -125 0 -125 24 -125 23 0 24 3 28 87 4 74 8 89 27 105 28 22 35 22 55 2 12
-12 16 -37 16 -105 l0 -89 30 0 30 0 0 85 c0 72 3 88 20 105 24 24 30 24 55 6
15 -11 20 -30 23 -105 4 -89 5 -91 29 -91 l25 0 -4 111 c-3 102 -5 112 -27
130 -30 25 -72 24 -104 -2 l-27 -20 -22 20 c-26 25 -65 27 -98 4z"/>
<path d="M5889 465 c-82 -45 -88 -180 -9 -233 44 -30 109 -26 146 9 l25 23
-23 12 c-18 10 -26 9 -42 -2 -11 -8 -31 -14 -44 -14 -23 0 -72 40 -72 60 0 6
37 10 101 10 l101 0 -7 33 c-22 98 -99 144 -176 102z m99 -51 c42 -29 28 -44
-43 -44 -50 0 -65 3 -65 14 0 19 38 46 65 46 11 0 31 -7 43 -16z"/>
<path d="M6180 463 c-17 -12 -25 -13 -28 -5 -2 7 -15 12 -28 12 l-24 0 0 -125
0 -125 25 0 c24 0 25 2 25 76 0 80 9 107 40 124 15 8 24 6 40 -10 17 -17 20
-33 20 -105 0 -84 0 -85 25 -85 l25 0 0 105 c0 99 -2 107 -25 130 -28 29 -61
32 -95 8z"/>
<path d="M7015 455 c-43 -42 -27 -89 45 -131 52 -32 31 -77 -24 -49 -24 13
-27 12 -37 -7 -10 -18 -8 -25 11 -40 48 -39 130 -6 130 53 0 43 -14 65 -60 90
-22 13 -40 28 -40 35 0 19 26 24 48 9 17 -13 22 -12 36 4 16 18 16 20 -10 40
-35 28 -69 27 -99 -4z"/>
<path d="M7339 465 c-82 -45 -88 -180 -9 -233 44 -30 109 -26 146 9 l25 23
-23 12 c-18 10 -26 9 -42 -2 -11 -8 -31 -14 -44 -14 -23 0 -72 40 -72 60 0 6
37 10 101 10 l101 0 -7 33 c-22 98 -99 144 -176 102z m99 -51 c42 -29 28 -44
-43 -44 -50 0 -65 3 -65 14 0 19 38 46 65 46 11 0 31 -7 43 -16z"/>
<path d="M7630 463 c-17 -12 -25 -13 -28 -5 -2 7 -15 12 -28 12 l-24 0 0 -125
0 -125 25 0 c24 0 25 2 25 76 0 80 9 107 40 124 15 8 24 6 40 -10 17 -17 20
-33 20 -105 0 -83 1 -85 24 -85 23 0 24 3 28 87 4 74 8 89 27 105 28 22 35 22
55 2 12 -12 16 -37 16 -105 l0 -89 30 0 30 0 0 83 c0 94 -11 143 -37 163 -26
20 -67 17 -97 -7 l-26 -20 -26 20 c-32 25 -62 27 -94 4z"/>
<path d="M2420 463 c0 -4 21 -60 46 -125 34 -89 50 -118 63 -118 17 0 37 44
109 238 3 10 -3 13 -23 10 -24 -3 -31 -12 -54 -70 -14 -36 -29 -69 -31 -72 -3
-3 -18 28 -34 69 -24 65 -30 75 -52 75 -13 0 -24 -3 -24 -7z"/>
<path d="M6744 461 c3 -5 23 -58 45 -118 l39 -109 -23 -57 -24 -57 27 0 c26 0
31 9 99 175 l71 175 -27 0 c-25 0 -30 -7 -56 -72 -15 -40 -31 -77 -35 -81 -4
-5 -20 28 -35 72 -27 76 -30 81 -57 81 -16 0 -27 -4 -24 -9z"/>
</g>
</svg>
